<!-- icon666.com - MILLIONS vector ICONS FREE --><svg viewBox="0 0 20 20" xmlns="http://www.w3.org/2000/svg"><g id="Layer_2" fill="rgb(0,0,0)" data-name="Layer 2"><path d="m9.51 12.873a6.869 6.869 0 0 0 -6.293-.125l-2.21 1.118a5.207 5.207 0 0 0 5.198 5.134h7.595a5.211 5.211 0 0 0 5.2-5.2v-1.426l-1.315.664a8.792 8.792 0 0 1 -8.175-.165z" fill="rgb(0,0,0)" style="fill: rgb(157, 247, 235);"></path><path d="m13.8 1h-7.595a5.211 5.211 0 0 0 -5.205 5.205v5.423l1.315-.664a8.8 8.8 0 0 1 8.175.165 6.859 6.859 0 0 0 6.293.124l2.217-1.119v-3.929a5.211 5.211 0 0 0 -5.2-5.205zm.7 6a1.5 1.5 0 1 1 1.5-1.5 1.5 1.5 0 0 1 -1.5 1.5z" fill="rgb(0,0,0)" style="fill: rgb(157, 247, 235);"></path></g></svg>